<svg width="512" height="512" viewBox="0 0 512 512" fill="none" xmlns="http://www.w3.org/2000/svg">
<g clip-path="url(#clip0_135_432)">
<path d="M474.195 204.196C478.337 204.196 481.695 200.839 481.695 196.696V122.954C481.695 111.112 474.168 100.579 462.965 96.744L369.567 64.77V31.744C369.567 20.964 357.499 12.964 332.672 7.289C312.106 2.589 284.877 0 256 0C227.123 0 199.894 2.589 179.328 7.289C154.501 12.964 142.433 20.964 142.433 31.744V64.77L49.0347 96.744C37.8317 100.579 30.3047 111.112 30.3047 122.954V355.661C30.3047 359.804 33.6627 363.161 37.8047 363.161C41.9467 363.161 45.3047 359.804 45.3047 355.661V122.954C45.3047 117.524 48.7567 112.694 53.8937 110.935L71.5277 104.898L135.161 226.148L123.285 336.007C123.081 337.891 123.598 339.782 124.733 341.301L241.036 497H58.0077C51.0027 497 45.3037 491.302 45.3037 484.297V390.696C45.3037 386.553 41.9457 383.196 37.8037 383.196C33.6617 383.196 30.3037 386.553 30.3037 390.696V484.297C30.3037 499.572 42.7317 512 58.0077 512H453.991C469.267 512 481.695 499.572 481.695 484.297V231.893C481.695 227.75 478.337 224.393 474.195 224.393C470.053 224.393 466.695 227.75 466.695 231.893V484.297C466.695 491.302 460.996 497 453.991 497H270.964L387.269 341.302C388.403 339.783 388.92 337.892 388.717 336.008L376.84 226.148L440.473 104.898L458.107 110.935C463.244 112.694 466.696 117.524 466.696 122.954V196.696C466.695 200.839 470.053 204.196 474.195 204.196ZM354.567 66.827L303.812 113.281L269.985 63.276C293.585 62.579 315.465 60.131 332.672 56.199C341.62 54.154 348.901 51.804 354.567 49.134V66.827ZM266.544 135.361H245.455L226.956 112.307L256 69.373L285.044 112.307L266.544 135.361ZM208.188 113.281L157.433 66.827V49.134C163.099 51.805 170.38 54.154 179.328 56.199C196.535 60.132 218.415 62.579 242.015 63.276L208.188 113.281ZM204.469 130.211C205.859 131.483 207.668 132.179 209.532 132.179C209.824 132.179 210.118 132.162 210.411 132.127C212.576 131.872 214.523 130.687 215.744 128.881L218.159 125.311L233.766 144.761L206.445 269.946L163.073 92.323L204.469 130.211ZM247.898 150.361H264.102L297.446 303.148L256 472.883L214.553 303.149L247.898 150.361ZM305.554 269.946L278.233 144.761L293.84 125.311L296.255 128.881C297.476 130.687 299.423 131.872 301.588 132.127C301.882 132.162 302.175 132.179 302.467 132.179C304.33 132.179 306.14 131.484 307.53 130.211L348.926 92.323L305.554 269.946ZM186.551 21.07C205.566 17.156 230.229 15 256 15C281.771 15 306.434 17.156 325.449 21.07C344.984 25.092 352.414 29.695 354.258 31.744C352.415 33.793 344.985 38.395 325.449 42.418C306.434 46.332 281.771 48.488 256 48.488C230.229 48.488 205.566 46.332 186.551 42.418C167.016 38.396 159.586 33.793 157.742 31.744C159.586 29.695 167.016 25.093 186.551 21.07ZM149.503 221.199L85.8877 99.983L144.595 79.885L239.984 470.527L138.514 334.688L150.319 225.491C150.479 224.011 150.194 222.518 149.503 221.199ZM362.497 221.199C361.806 222.517 361.521 224.011 361.682 225.49L373.487 334.687L272.017 470.526L367.406 79.884L426.113 99.982L362.497 221.199Z" fill="#5E5E5E"/>
</g>
<defs>
<clipPath id="clip0_135_432">
<rect width="512" height="512" fill="white"/>
</clipPath>
</defs>
</svg>
