<svg width="512" height="512" viewBox="0 0 512 512" fill="none" xmlns="http://www.w3.org/2000/svg">
<path d="M416.157 112.369L417.446 115.822C418.572 118.837 421.432 120.699 424.472 120.699C425.344 120.699 426.231 120.546 427.096 120.222C430.976 118.772 432.948 114.451 431.497 110.572L430.209 107.124C428.482 102.494 424.848 98.8323 420.238 97.0793C416.37 95.6083 412.035 97.5512 410.562 101.423C409.089 105.295 411.034 109.627 414.906 111.1C415.481 111.317 415.936 111.778 416.157 112.369Z" fill="#5E5E5E"/>
<path d="M413.05 149.721C415.032 149.721 417.012 148.94 418.486 147.389C421.079 144.663 423.789 142.089 426.544 139.737C429.694 137.048 430.067 132.313 427.378 129.163C424.689 126.014 419.956 125.639 416.804 128.33C413.657 131.017 410.566 133.952 407.617 137.052C404.763 140.053 404.882 144.801 407.883 147.655C409.334 149.036 411.193 149.721 413.05 149.721Z" fill="#5E5E5E"/>
<path d="M288.197 430.933C284.562 432.92 280.961 435.074 277.493 437.334C274.022 439.596 273.043 444.242 275.305 447.712C276.743 449.918 279.145 451.118 281.595 451.118C282.999 451.118 284.419 450.724 285.683 449.9C288.829 447.85 292.096 445.896 295.393 444.093C299.028 442.106 300.363 437.549 298.376 433.914C296.388 430.281 291.829 428.945 288.197 430.933Z" fill="#5E5E5E"/>
<path d="M396.497 362.688C394.604 359.002 390.084 357.55 386.399 359.441C382.714 361.333 381.261 365.854 383.153 369.539C385.068 373.269 387.118 376.924 389.244 380.402C390.658 382.715 393.124 383.99 395.649 383.99C396.983 383.99 398.334 383.634 399.555 382.887C403.088 380.726 404.201 376.109 402.04 372.575C400.108 369.415 398.243 366.088 396.497 362.688Z" fill="#5E5E5E"/>
<path d="M226.236 432.291C222.636 430.241 218.057 431.498 216.007 435.098C213.958 438.698 215.214 443.277 218.814 445.326C222.079 447.185 225.312 449.195 228.424 451.3C229.712 452.172 231.173 452.589 232.619 452.589C235.025 452.589 237.389 451.433 238.838 449.29C241.159 445.859 240.259 441.197 236.828 438.876C233.399 436.555 229.834 434.34 226.236 432.291Z" fill="#5E5E5E"/>
<path d="M278.46 30H266.562C262.419 30 259.062 33.358 259.062 37.5C259.062 41.642 262.419 45 266.562 45H278.46C282.603 45 285.96 41.642 285.96 37.5C285.96 33.358 282.602 30 278.46 30Z" fill="#5E5E5E"/>
<path d="M257.731 452.507L257.458 452.754C256.939 453.222 256.379 453.32 256 453.32C255.642 453.32 255.289 453.231 254.978 453.063C251.336 451.089 246.784 452.443 244.811 456.086C242.838 459.728 244.191 464.28 247.834 466.253C250.331 467.606 253.154 468.32 256 468.32C260.257 468.32 264.344 466.746 267.52 463.879L267.738 463.682C270.824 460.919 271.086 456.178 268.323 453.092C265.56 450.007 260.82 449.743 257.731 452.507Z" fill="#5E5E5E"/>
<path d="M230.868 45.1216C231.264 45.1216 231.666 45.0906 232.07 45.0246C232.176 45.0076 232.283 44.9996 232.397 44.9996H242.768C246.91 44.9996 250.268 41.6416 250.268 37.4996C250.268 33.3576 246.91 29.9996 242.768 29.9996H232.406C231.497 29.9726 230.582 30.0716 229.685 30.2166C225.596 30.8756 222.814 34.7246 223.474 38.8136C224.067 42.4996 227.251 45.1216 230.868 45.1216Z" fill="#5E5E5E"/>
<path d="M293.456 68.19C294.923 70.216 297.214 71.293 299.537 71.293C301.061 71.293 302.6 70.83 303.929 69.868C307.284 67.439 308.035 62.75 305.607 59.395C303.492 56.473 301.548 53.369 299.832 50.17C297.873 46.521 293.323 45.15 289.677 47.109C286.028 49.068 284.656 53.614 286.615 57.264C288.647 61.051 290.949 64.728 293.456 68.19Z" fill="#5E5E5E"/>
<path d="M221.223 49.5487C217.635 47.4817 213.048 48.7157 210.981 52.3057C209.174 55.4437 207.139 58.4867 204.932 61.3507C202.403 64.6317 203.014 69.3408 206.294 71.8698C207.658 72.9208 209.268 73.4297 210.867 73.4297C213.114 73.4297 215.336 72.4248 216.813 70.5078C219.429 67.1138 221.84 63.5077 223.98 59.7907C226.047 56.2017 224.812 51.6157 221.223 49.5487Z" fill="#5E5E5E"/>
<path d="M381.574 111.999C384.983 112.2 388.508 112.302 392.049 112.302C392.695 112.302 393.339 112.299 393.985 112.292C398.127 112.25 401.45 108.857 401.408 104.716C401.365 100.573 397.975 97.213 393.831 97.293C389.991 97.331 386.145 97.243 382.458 97.025C378.305 96.781 374.773 99.935 374.529 104.07C374.285 108.205 377.439 111.755 381.574 111.999Z" fill="#5E5E5E"/>
<path d="M365.059 225.483C364.29 229.453 363.613 233.534 363.046 237.614C362.477 241.717 365.34 245.505 369.443 246.074C369.793 246.123 370.14 246.146 370.484 246.146C374.168 246.146 377.381 243.429 377.903 239.677C378.433 235.86 379.066 232.044 379.785 228.335C380.572 224.269 377.915 220.334 373.848 219.545C369.774 218.758 365.846 221.417 365.059 225.483Z" fill="#5E5E5E"/>
<path d="M382.859 427.266C386.59 427.719 390.347 428.324 394.025 429.065C394.525 429.166 395.023 429.214 395.513 429.214C399.011 429.214 402.141 426.754 402.858 423.193C403.675 419.132 401.046 415.178 396.986 414.36C392.927 413.543 388.783 412.876 384.668 412.376C380.549 411.882 376.817 414.805 376.318 418.917C375.819 423.028 378.748 426.766 382.859 427.266Z" fill="#5E5E5E"/>
<path d="M421.761 419.512C421.347 420.293 420.444 420.763 419.586 420.625C415.49 419.976 411.655 422.776 411.011 426.868C410.367 430.96 413.162 434.799 417.254 435.443C418.122 435.58 419.009 435.649 419.889 435.649C426.237 435.649 432.031 432.16 435.011 426.543C436.952 422.884 435.56 418.344 431.902 416.403C428.239 414.459 423.702 415.853 421.761 419.512Z" fill="#5E5E5E"/>
<path d="M415.315 390.719C412.584 387.605 407.844 387.296 404.731 390.028C401.618 392.76 401.308 397.498 404.04 400.612C406.851 403.816 409.808 406.87 412.828 409.692C414.274 411.042 416.111 411.711 417.945 411.711C419.951 411.711 421.952 410.911 423.428 409.33C426.255 406.303 426.093 401.557 423.066 398.729C420.407 396.245 417.8 393.55 415.315 390.719Z" fill="#5E5E5E"/>
<path d="M375.992 211.005C376.743 211.242 377.504 211.355 378.252 211.355C381.437 211.355 384.393 209.31 385.402 206.111C386.557 202.449 387.827 198.818 389.174 195.318C390.662 191.452 388.736 187.112 384.869 185.624C381.004 184.133 376.663 186.063 375.176 189.928C373.718 193.715 372.346 197.64 371.097 201.595C369.85 205.545 372.042 209.758 375.992 211.005Z" fill="#5E5E5E"/>
<path d="M373.365 346.778C374.457 349.852 377.347 351.771 380.433 351.771C381.266 351.771 382.113 351.631 382.942 351.337C386.845 349.951 388.886 345.664 387.502 341.76C386.244 338.216 385.067 334.551 384.006 330.865C382.859 326.884 378.701 324.587 374.723 325.734C370.743 326.881 368.446 331.037 369.592 335.017C370.737 338.994 372.007 342.95 373.365 346.778Z" fill="#5E5E5E"/>
<path d="M372.784 317.144C376.867 316.449 379.614 312.576 378.919 308.492C378.284 304.76 377.736 300.929 377.293 297.108C376.814 292.994 373.095 290.045 368.978 290.524C364.863 291.002 361.915 294.725 362.393 298.839C362.868 302.922 363.453 307.016 364.132 311.008C364.754 314.666 367.927 317.251 371.517 317.251C371.934 317.251 372.358 317.217 372.784 317.144Z" fill="#5E5E5E"/>
<path d="M360.165 93.9048C356.492 93.0578 352.886 92.0368 349.447 90.8708C345.528 89.5438 341.267 91.6418 339.936 95.5658C338.606 99.4888 340.707 103.747 344.63 105.077C348.542 106.404 352.635 107.562 356.795 108.521C357.361 108.652 357.928 108.714 358.486 108.714C361.9 108.714 364.988 106.367 365.788 102.897C366.72 98.8618 364.201 94.8348 360.165 93.9048Z" fill="#5E5E5E"/>
<path d="M368.695 254.848C364.53 254.679 361.081 257.939 360.935 262.078C360.832 264.968 360.782 267.897 360.783 270.782C360.783 271.973 360.791 273.161 360.808 274.347C360.868 278.452 364.213 281.739 368.305 281.739C368.341 281.739 368.378 281.739 368.415 281.738C372.557 281.678 375.865 278.272 375.806 274.131C375.79 273.018 375.783 271.902 375.783 270.78C375.782 268.07 375.83 265.32 375.926 262.608C376.072 258.468 372.835 254.994 368.695 254.848Z" fill="#5E5E5E"/>
<path d="M348.138 427.155C348.419 427.155 348.703 427.139 348.989 427.107C352.722 426.686 356.517 426.407 360.267 426.28C364.407 426.139 367.649 422.669 367.508 418.53C367.366 414.39 363.916 411.15 359.757 411.289C355.617 411.43 351.428 411.737 347.307 412.202C343.191 412.666 340.231 416.38 340.695 420.495C341.127 424.326 344.372 427.155 348.138 427.155Z" fill="#5E5E5E"/>
<path d="M398.748 174.683C400.593 171.345 402.559 168.085 404.593 164.995C406.87 161.535 405.911 156.884 402.451 154.607C398.99 152.329 394.341 153.288 392.063 156.748C389.817 160.16 387.649 163.754 385.619 167.43C383.616 171.055 384.931 175.618 388.557 177.621C389.706 178.256 390.951 178.558 392.177 178.558C394.818 178.558 397.381 177.159 398.748 174.683Z" fill="#5E5E5E"/>
<path d="M137.802 192.529C136.368 188.643 132.055 186.652 128.17 188.088C124.284 189.521 122.295 193.834 123.729 197.72C125.03 201.249 126.25 204.898 127.354 208.568C128.331 211.814 131.31 213.909 134.533 213.909C135.249 213.909 135.976 213.806 136.697 213.589C140.664 212.396 142.912 208.213 141.718 204.246C140.526 200.285 139.209 196.343 137.802 192.529Z" fill="#5E5E5E"/>
<path d="M138.735 222.156C134.659 222.893 131.953 226.796 132.691 230.871C133.367 234.609 133.954 238.433 134.435 242.236C134.915 246.026 138.143 248.796 141.867 248.796C142.18 248.796 142.498 248.776 142.818 248.736C146.927 248.216 149.837 244.463 149.318 240.354C148.803 236.288 148.175 232.199 147.452 228.201C146.713 224.124 142.804 221.417 138.735 222.156Z" fill="#5E5E5E"/>
<path d="M164.661 105.959C168.614 104.72 170.814 100.512 169.575 96.5595C168.336 92.6065 164.129 90.4055 160.176 91.6455C156.716 92.7295 153.082 93.6715 149.377 94.4445C145.322 95.2905 142.721 99.2625 143.567 103.319C144.305 106.857 147.424 109.289 150.901 109.289C151.409 109.289 151.924 109.237 152.441 109.129C156.623 108.256 160.735 107.189 164.661 105.959Z" fill="#5E5E5E"/>
<path d="M143.447 284.408C143.512 284.409 143.577 284.41 143.641 284.41C147.695 284.41 151.032 281.177 151.135 277.101C151.188 275.013 151.215 272.887 151.215 270.782C151.215 268.801 151.191 266.8 151.144 264.834C151.045 260.693 147.644 257.44 143.466 257.516C139.325 257.616 136.049 261.053 136.148 265.194C136.192 267.041 136.215 268.921 136.215 270.782C136.215 272.761 136.19 274.758 136.14 276.72C136.035 280.861 139.307 284.303 143.447 284.408Z" fill="#5E5E5E"/>
<path d="M87.33 141.378C90.032 143.8 92.687 146.441 95.223 149.227C96.702 150.852 98.733 151.678 100.771 151.678C102.573 151.678 104.38 151.032 105.818 149.724C108.881 146.935 109.104 142.192 106.316 139.129C103.441 135.97 100.422 132.97 97.345 130.211C94.261 127.445 89.52 127.704 86.754 130.787C83.989 133.871 84.247 138.612 87.33 141.378Z" fill="#5E5E5E"/>
<path d="M93.6179 118.324L95.8429 112.367C96.0299 111.868 96.3459 111.556 96.5789 111.382C99.8989 108.904 100.581 104.205 98.1029 100.885C95.6259 97.5659 90.9259 96.8839 87.6069 99.3609C84.9589 101.337 82.9479 104.02 81.7909 107.118L79.5659 113.074C78.1169 116.954 80.0869 121.275 83.9669 122.724C84.8319 123.047 85.7179 123.2 86.5909 123.2C89.6309 123.202 92.4919 121.34 93.6179 118.324Z" fill="#5E5E5E"/>
<path d="M126.995 97.1535C123.277 97.3115 119.409 97.3435 115.612 97.2465C111.479 97.1605 108.029 100.412 107.923 104.553C107.817 108.694 111.088 112.136 115.229 112.242C116.799 112.282 118.374 112.302 119.952 112.302C122.532 112.302 125.117 112.248 127.635 112.14C131.773 111.964 134.985 108.466 134.809 104.327C134.631 100.19 131.131 96.9755 126.995 97.1535Z" fill="#5E5E5E"/>
<path d="M119.11 428.709C119.558 428.709 120.013 428.668 120.469 428.585C124.161 427.909 127.929 427.369 131.668 426.981C135.788 426.553 138.781 422.866 138.353 418.746C137.924 414.626 134.233 411.629 130.118 412.061C125.995 412.489 121.84 413.084 117.768 413.83C113.693 414.576 110.995 418.484 111.741 422.558C112.404 426.177 115.559 428.709 119.11 428.709Z" fill="#5E5E5E"/>
<path d="M147.391 313.729C148.12 309.733 148.753 305.646 149.273 301.579C149.798 297.47 146.894 293.713 142.785 293.188C138.67 292.662 134.92 295.568 134.394 299.676C133.908 303.48 133.315 307.302 132.634 311.037C131.891 315.112 134.592 319.018 138.666 319.762C139.121 319.845 139.574 319.885 140.021 319.885C143.574 319.885 146.73 317.349 147.391 313.729Z" fill="#5E5E5E"/>
<path d="M114.465 176.924C115.813 179.461 118.409 180.907 121.095 180.907C122.282 180.907 123.486 180.625 124.607 180.029C128.265 178.086 129.655 173.546 127.712 169.887C125.746 166.185 123.642 162.558 121.459 159.107C119.244 155.607 114.611 154.565 111.111 156.779C107.611 158.993 106.568 163.626 108.783 167.127C110.764 170.259 112.676 173.555 114.465 176.924Z" fill="#5E5E5E"/>
<path d="M136.619 328.328C132.655 327.129 128.468 329.369 127.268 333.333C126.156 337.006 124.931 340.654 123.625 344.174C122.185 348.058 124.166 352.374 128.05 353.814C128.91 354.133 129.79 354.284 130.656 354.284C133.703 354.284 136.568 352.413 137.689 349.389C139.1 345.583 140.424 341.643 141.624 337.679C142.824 333.714 140.583 329.527 136.619 328.328Z" fill="#5E5E5E"/>
<path d="M329.517 81.5183C326.645 79.7313 323.856 77.7663 321.222 75.6743L320.592 75.1693C317.374 72.5603 312.653 73.0553 310.043 76.2723C307.435 79.4903 307.929 84.2133 311.147 86.8213C311.397 87.0243 311.648 87.2253 311.897 87.4233C314.974 89.8673 318.236 92.1653 321.591 94.2533C322.824 95.0213 324.194 95.3863 325.547 95.3863C328.052 95.3863 330.5 94.1313 331.922 91.8473C334.11 88.3313 333.033 83.7063 329.517 81.5183Z" fill="#5E5E5E"/>
<path d="M313.47 435.255C314.315 435.255 315.173 435.111 316.013 434.809C319.545 433.536 323.174 432.385 326.796 431.388C330.79 430.289 333.137 426.161 332.038 422.167C330.938 418.174 326.809 415.824 322.817 416.925C318.822 418.024 314.822 419.294 310.926 420.697C307.029 422.102 305.009 426.399 306.413 430.296C307.516 433.353 310.397 435.255 313.47 435.255Z" fill="#5E5E5E"/>
<path d="M189.48 76.6861C186.6 78.8871 183.536 80.9411 180.372 82.7921C176.797 84.8841 175.595 89.4781 177.686 93.0531C179.082 95.4381 181.589 96.7661 184.166 96.7661C185.453 96.7661 186.756 96.4351 187.947 95.7381C191.64 93.5771 195.22 91.1761 198.587 88.6031C201.879 86.0881 202.507 81.3811 199.992 78.0901C197.478 74.7991 192.771 74.1711 189.48 76.6861Z" fill="#5E5E5E"/>
<path d="M201.021 436.177C204.045 436.177 206.895 434.334 208.033 431.339C209.505 427.467 207.558 423.135 203.686 421.664C199.815 420.193 195.838 418.855 191.864 417.687C187.89 416.518 183.721 418.794 182.554 422.769C181.386 426.743 183.661 430.911 187.636 432.079C191.24 433.138 194.847 434.351 198.358 435.685C199.236 436.019 200.136 436.177 201.021 436.177Z" fill="#5E5E5E"/>
<path d="M105.607 392.125C102.554 389.328 97.8101 389.535 95.0101 392.589C92.4671 395.365 89.8031 397.997 87.0931 400.409C83.9991 403.164 83.7241 407.905 86.4791 410.998C87.9611 412.663 90.0181 413.511 92.0831 413.511C93.8571 413.511 95.6381 412.885 97.0671 411.613C100.155 408.863 103.184 405.872 106.07 402.722C108.869 399.667 108.661 394.923 105.607 392.125Z" fill="#5E5E5E"/>
<path d="M110.92 385.084C112.168 385.877 113.561 386.256 114.938 386.256C117.417 386.256 119.844 385.027 121.274 382.78C123.466 379.334 125.578 375.711 127.553 372.012C129.504 368.358 128.123 363.814 124.469 361.864C120.814 359.913 116.271 361.294 114.321 364.948C112.525 368.313 110.606 371.604 108.617 374.731C106.393 378.226 107.425 382.861 110.92 385.084Z" fill="#5E5E5E"/>
<path d="M93.6541 420.223L92.7951 420.527C92.0121 420.806 91.1491 420.576 90.5801 419.984C87.7101 416.999 82.9611 416.905 79.9761 419.777C76.9901 422.648 76.8981 427.396 79.7691 430.381C82.9881 433.728 87.4861 435.648 92.1111 435.648C94.0641 435.648 95.9911 435.313 97.8391 434.653L98.6311 434.373C102.539 432.999 104.592 428.717 103.218 424.81C101.842 420.902 97.5611 418.847 93.6541 420.223Z" fill="#5E5E5E"/>
<path d="M154.267 426.388C158.012 426.581 161.799 426.926 165.523 427.413C165.853 427.456 166.18 427.477 166.504 427.477C170.213 427.477 173.438 424.725 173.931 420.948C174.468 416.841 171.574 413.076 167.466 412.54C163.355 412.002 159.174 411.622 155.04 411.408C150.91 411.198 147.377 414.375 147.163 418.512C146.951 422.648 150.131 426.174 154.267 426.388Z" fill="#5E5E5E"/>
<path d="M173.438 443.923C164.709 442.114 155.762 441.196 146.844 441.196C121.562 441.196 97.0377 448.427 75.9247 462.108C74.8527 462.803 73.8407 462.599 73.3327 462.415C72.8407 462.238 71.9617 461.765 71.5977 460.598L54.5677 406.054C54.1367 404.674 54.8837 403.183 56.3067 402.584C89.5047 388.608 114.527 345.612 120.053 293.045C120.486 288.925 117.497 285.235 113.378 284.802C109.257 284.375 105.568 287.357 105.135 291.477C100.173 338.687 78.7217 376.873 50.4877 388.759C41.9047 392.372 37.5037 401.729 40.2507 410.525L57.2807 465.069C58.9577 470.439 62.9507 474.614 68.2387 476.524C70.2367 477.246 72.2997 477.602 74.3487 477.602C77.7507 477.602 81.1157 476.62 84.0817 474.698C102.761 462.595 124.464 456.198 146.845 456.198C154.742 456.198 162.666 457.011 170.395 458.612C174.45 459.455 178.421 456.846 179.261 452.79C180.1 448.733 177.494 444.763 173.438 443.923Z" fill="#5E5E5E"/>
<path d="M50.7242 152.906C80.5022 165.62 102.637 207.938 105.804 258.21C106.054 262.183 109.355 265.239 113.282 265.239C113.441 265.239 113.6 265.234 113.761 265.224C117.895 264.963 121.035 261.401 120.775 257.267C119.051 229.901 112.152 204.3 100.823 183.231C89.2952 161.793 74.0092 146.537 56.6152 139.111C55.2902 138.545 54.6392 136.939 55.1652 135.531L76.4482 78.554C76.9652 77.169 78.4702 76.397 79.8752 76.803C92.5952 80.451 106.078 82.302 119.95 82.302C169.14 82.302 201.66 58.12 206.94 17.615C207.139 16.1 208.325 15 209.762 15H302.235C303.673 15 304.859 16.099 305.056 17.614C310.336 58.119 342.856 82.302 392.046 82.302C405.919 82.302 419.402 80.452 432.122 76.803C433.524 76.398 435.031 77.168 435.549 78.554L456.832 135.531C457.358 136.939 456.708 138.545 455.383 139.111C443.234 144.298 432.162 153.259 422.476 165.748C419.938 169.021 420.534 173.732 423.806 176.271C427.077 178.809 431.789 178.214 434.329 174.941C442.433 164.492 451.498 157.079 461.272 152.906C470.006 149.177 474.229 139.239 470.883 130.282L449.6 73.305C446.361 64.633 436.871 59.838 427.985 62.383C416.611 65.646 404.519 67.3 392.046 67.3C350.492 67.3 324.207 48.483 319.931 15.674C318.766 6.739 311.159 0 302.235 0H209.762C200.839 0 193.232 6.739 192.067 15.676C187.79 48.485 161.505 67.302 119.951 67.302C107.478 67.302 95.3872 65.648 84.0122 62.385C75.1312 59.839 65.6372 64.635 62.3972 73.306L41.1142 130.284C37.7672 139.239 41.9892 149.176 50.7242 152.906Z" fill="#5E5E5E"/>
<path d="M461.513 388.759C446.206 382.316 432.23 367.452 422.158 346.905C411.446 325.053 405.784 298.73 405.784 270.782C405.784 246.654 410.118 223.298 418.317 203.239C419.884 199.405 418.046 195.026 414.213 193.459C410.381 191.892 405.999 193.73 404.433 197.563C395.504 219.407 390.785 244.726 390.785 270.782C390.785 301.006 396.976 329.612 408.691 353.508C420.357 377.306 437.049 394.735 455.694 402.584C457.117 403.183 457.864 404.674 457.433 406.054L440.403 460.598C440.039 461.765 439.16 462.238 438.669 462.415C438.158 462.599 437.148 462.803 436.076 462.108C414.963 448.427 390.439 441.196 365.157 441.196C323.494 441.196 283.979 461.372 259.456 495.166C258.621 496.314 257.329 497 255.999 497C254.668 497 253.377 496.314 252.543 495.166C240.858 479.064 225.407 465.636 207.86 456.332C204.2 454.392 199.661 455.785 197.72 459.444C195.779 463.103 197.173 467.643 200.832 469.584C216.37 477.823 230.053 489.716 240.402 503.977C244.049 509 249.879 512 255.999 512C262.119 512 267.949 509 271.595 503.976C293.306 474.058 328.282 456.197 365.156 456.197C387.537 456.197 409.24 462.594 427.919 474.697C432.674 477.777 438.449 478.442 443.764 476.523C449.051 474.613 453.045 470.438 454.721 465.068L471.751 410.524C474.496 401.729 470.095 392.372 461.513 388.759Z" fill="#5E5E5E"/>
<path d="M256 233.77C285.155 233.77 308.875 210.05 308.875 180.895C308.875 172.464 306.881 164.494 303.357 157.414L310.379 150.392C313.308 147.463 313.308 142.714 310.379 139.786C307.449 136.857 302.701 136.857 299.772 139.786L294.67 144.888C285.01 134.52 271.253 128.02 256 128.02C226.845 128.02 203.125 151.74 203.125 180.895C203.125 210.05 226.845 233.77 256 233.77ZM256 143.02C267.118 143.02 277.131 147.836 284.066 155.491L254.965 184.592L246.602 176.229C243.673 173.3 238.924 173.3 235.996 176.229C233.067 179.158 233.067 183.907 235.996 186.835L249.663 200.502C251.069 201.909 252.977 202.699 254.966 202.699C256.955 202.699 258.862 201.909 260.27 200.502L291.906 168.866C293.177 172.648 293.876 176.691 293.876 180.896C293.876 201.78 276.886 218.771 256.001 218.771C235.117 218.771 218.126 201.78 218.126 180.896C218.126 160.012 235.116 143.02 256 143.02Z" fill="#5E5E5E"/>
<path d="M241.572 279.5C237.43 279.5 234.072 282.858 234.072 287C234.072 291.142 237.43 294.5 241.572 294.5H270.426C274.569 294.5 277.926 291.142 277.926 287C277.926 282.858 274.569 279.5 270.426 279.5H241.572Z" fill="#5E5E5E"/>
<path d="M199.424 316C199.424 320.142 202.782 323.5 206.924 323.5H305.075C309.218 323.5 312.575 320.142 312.575 316C312.575 311.858 309.218 308.5 305.075 308.5H206.924C202.782 308.5 199.424 311.858 199.424 316Z" fill="#5E5E5E"/>
<path d="M312.575 336.5C312.575 332.358 309.218 329 305.075 329H206.924C202.782 329 199.424 332.358 199.424 336.5C199.424 340.642 202.782 344 206.924 344H305.075C309.218 344 312.575 340.642 312.575 336.5Z" fill="#5E5E5E"/>
</svg>
