<svg width="512" height="512" viewBox="0 0 512 512" fill="none" xmlns="http://www.w3.org/2000/svg">
<g clip-path="url(#clip0_135_420)">
<path d="M154.773 389.156C158.916 389.156 162.273 385.799 162.273 381.656V374.92C162.273 370.777 158.916 367.42 154.773 367.42C150.63 367.42 147.273 370.777 147.273 374.92V381.656C147.273 385.799 150.63 389.156 154.773 389.156Z" fill="#5E5E5E"/>
<path d="M154.773 421.24C158.916 421.24 162.273 417.883 162.273 413.74V407.004C162.273 402.861 158.916 399.504 154.773 399.504C150.63 399.504 147.273 402.861 147.273 407.004V413.74C147.273 417.883 150.63 421.24 154.773 421.24Z" fill="#5E5E5E"/>
<path d="M154.773 453.324C158.916 453.324 162.273 449.967 162.273 445.824V439.088C162.273 434.945 158.916 431.588 154.773 431.588C150.63 431.588 147.273 434.945 147.273 439.088V445.824C147.273 449.967 150.63 453.324 154.773 453.324Z" fill="#5E5E5E"/>
<path d="M154.773 485.406C158.916 485.406 162.273 482.049 162.273 477.906V471.17C162.273 467.027 158.916 463.67 154.773 463.67C150.63 463.67 147.273 467.027 147.273 471.17V477.906C147.273 482.049 150.63 485.406 154.773 485.406Z" fill="#5E5E5E"/>
<path d="M191.834 131.68C187.691 131.68 184.334 135.037 184.334 139.18V155.064C184.334 159.207 187.691 162.564 191.834 162.564C195.977 162.564 199.334 159.207 199.334 155.064V139.18C199.334 135.037 195.977 131.68 191.834 131.68Z" fill="#5E5E5E"/>
<path d="M216.812 131.68C212.669 131.68 209.312 135.037 209.312 139.18V155.064C209.312 159.207 212.669 162.564 216.812 162.564C220.955 162.564 224.312 159.207 224.312 155.064V139.18C224.312 135.037 220.954 131.68 216.812 131.68Z" fill="#5E5E5E"/>
<path d="M241.788 131.68C237.645 131.68 234.288 135.037 234.288 139.18V155.064C234.288 159.207 237.645 162.564 241.788 162.564C245.931 162.564 249.288 159.207 249.288 155.064V139.18C249.288 135.037 245.931 131.68 241.788 131.68Z" fill="#5E5E5E"/>
<path d="M266.766 131.68C262.623 131.68 259.266 135.037 259.266 139.18V155.064C259.266 159.207 262.623 162.564 266.766 162.564C270.909 162.564 274.266 159.207 274.266 155.064V139.18C274.266 135.037 270.908 131.68 266.766 131.68Z" fill="#5E5E5E"/>
<path d="M439.113 183.664C420.467 183.664 405.299 198.833 405.299 217.478C405.299 236.122 420.468 251.291 439.113 251.291C457.757 251.291 472.926 236.122 472.926 217.478C472.926 198.833 457.757 183.664 439.113 183.664ZM439.113 236.292C428.738 236.292 420.299 227.853 420.299 217.479C420.299 207.105 428.738 198.665 439.113 198.665C449.487 198.665 457.926 207.105 457.926 217.479C457.926 227.853 449.487 236.292 439.113 236.292Z" fill="#5E5E5E"/>
<path d="M478.249 403.74C482.392 403.74 485.749 400.383 485.749 396.24C485.749 389.852 485.749 266.894 485.749 260.012C496.002 248.781 502.265 233.848 502.265 217.477C502.265 201.107 496.002 186.175 485.749 174.942V163.516C485.749 127.428 461.251 96.9719 428.019 87.8537C428.631 86.0527 428.977 84.1316 428.977 82.1276V33.8107C428.977 23.9255 420.902 15.8843 410.977 15.8843H404.282V7.50015C404.282 3.35707 400.925 0 396.782 0C392.639 0 389.282 3.35707 389.282 7.50015V15.8843H382.587C372.661 15.8843 364.587 23.9255 364.587 33.8107V57.7281H162.273V54.3821C162.273 50.239 158.916 46.8819 154.773 46.8819C150.63 46.8819 147.273 50.239 147.273 54.3821V57.7281H147.002C142.859 57.7281 139.502 61.0852 139.502 65.2283C139.502 69.3714 142.859 72.7284 147.002 72.7284H147.273V86.6557C111.515 94.0018 84.6228 125.727 84.6228 163.517V258.321C84.6228 274.456 97.7491 287.583 113.884 287.583H119.946V294.771C119.946 305.687 128.828 314.568 139.744 314.568H147.273V321.77H143.159C139.016 321.77 135.659 325.127 135.659 329.27C135.659 333.414 139.016 336.771 143.159 336.771H147.273V343.973H76.1236C68.8995 343.973 62.6834 348.336 59.9503 354.562H51.0181C38.1709 354.562 27.7197 365.013 27.7197 377.86V455.027C17.7355 455.445 9.73633 463.674 9.73633 473.759V493.23C9.73633 503.582 18.1575 512.002 28.5077 512.002H483.494C493.845 512.002 502.265 503.581 502.265 493.23V473.759C502.265 464.173 495.038 456.256 485.749 455.137V431.243C485.749 427.1 482.392 423.743 478.249 423.743C474.105 423.743 470.748 427.1 470.748 431.243V454.988H212.143V369.563H470.749V396.243C470.748 400.383 474.106 403.74 478.249 403.74ZM439.113 265.629C412.562 265.629 390.962 244.028 390.962 217.478C390.962 190.927 412.563 169.326 439.113 169.326C465.705 169.326 487.265 190.97 487.265 217.478C487.265 244.126 465.561 265.629 439.113 265.629ZM379.588 33.8107C379.588 32.2246 380.961 30.8846 382.587 30.8846H410.978C412.604 30.8846 413.977 32.2246 413.977 33.8107V82.1286C413.977 83.7136 412.604 85.0537 410.978 85.0537C394.768 85.0537 398.798 85.0537 382.587 85.0537C380.961 85.0537 379.588 83.7136 379.588 82.1286V33.8107ZM162.273 72.7284H364.587V82.1286C364.587 83.1266 364.69 84.0996 364.848 85.0537H163.085C162.813 85.0537 162.544 85.0717 162.273 85.0747V72.7284ZM101.907 146.68H142.561C145.16 146.68 147.273 148.793 147.273 151.392V230.297C147.273 232.895 145.16 235.008 142.561 235.008H99.6221V163.517C99.6221 158.084 100.305 152.499 101.907 146.68ZM134.946 294.77V287.582H174.598V294.77C174.598 297.371 172.402 299.567 169.801 299.567H139.743C137.143 299.567 134.946 297.37 134.946 294.77ZM42.72 377.859C42.72 373.284 46.443 369.561 51.0181 369.561H58.4613V454.986H42.72V377.859ZM28.5077 497C26.4637 497 24.7366 495.272 24.7366 493.228V473.757C24.7366 471.713 26.4647 469.986 28.5077 469.986H35.2198H58.4613V494.339C58.4613 494.887 58.4943 495.426 58.5433 495.962C58.5573 496.119 58.5773 496.274 58.5963 496.43C58.6193 496.62 58.6323 496.813 58.6613 497.001H28.5077V497ZM73.4616 494.338C73.4616 491.031 73.4616 362.657 73.4616 362.061V361.634C73.4616 360.166 74.6556 358.972 76.1236 358.972H194.481C195.949 358.972 197.142 360.166 197.142 361.634V362.061V494.338C197.142 495.806 195.949 497 194.481 497H76.1236C74.6556 497 73.4616 495.806 73.4616 494.338ZM483.493 469.986C485.537 469.986 487.264 471.714 487.264 473.757V493.228C487.264 495.273 485.536 497 483.493 497H211.942C211.971 496.812 211.984 496.619 212.007 496.429C212.026 496.273 212.046 496.118 212.06 495.961C212.109 495.426 212.142 494.886 212.142 494.338V469.985C227.076 469.986 468.234 469.986 483.493 469.986ZM360.448 354.561V236.786C360.448 222.211 348.591 210.353 334.016 210.353H302.685C298.542 210.353 295.185 213.71 295.185 217.853C295.185 221.996 298.542 225.353 302.685 225.353H334.016C340.32 225.353 345.448 230.482 345.448 236.786V354.56H210.654C207.92 348.334 201.705 343.971 194.482 343.971H162.273V336.769H166.386C170.529 336.769 173.887 333.412 173.887 329.268C173.887 325.125 170.529 321.768 166.386 321.768H162.273V314.566H169.802C180.718 314.566 189.599 305.685 189.599 294.769V287.581H195.661C211.796 287.581 224.923 274.454 224.923 258.319V236.785C224.923 230.481 230.051 225.352 236.355 225.352H267.685C271.828 225.352 275.186 221.995 275.186 217.852C275.186 213.709 271.828 210.352 267.685 210.352H236.355C221.78 210.352 209.922 222.209 209.922 236.785V258.319C209.922 266.182 203.525 272.58 195.661 272.58H182.099H127.447H113.884C106.021 272.58 99.6231 266.183 99.6231 258.319V250.007H142.562C153.431 250.007 162.274 241.164 162.274 230.296V151.391C162.274 140.522 153.431 131.679 142.562 131.679H108.222C119.227 112.787 139.692 100.053 163.086 100.053H407.286C442.039 100.053 470.356 128.133 470.745 162.794C460.843 157.044 449.863 154.324 439.113 154.324C404.291 154.324 375.962 182.655 375.962 217.476C375.962 252.298 404.291 280.627 439.113 280.627C450.165 280.627 461.1 277.759 470.749 272.154V354.558H360.448V354.561Z" fill="#5E5E5E"/>
</g>
<defs>
<clipPath id="clip0_135_420">
<rect width="512" height="512" fill="white"/>
</clipPath>
</defs>
</svg>
